<?xml version="1.0" encoding="utf-8"?>
<!-- Generator: Adobe Illustrator 21.1.0, SVG Export Plug-In . SVG Version: 6.00 Build 0)  -->
<svg version="1.1" id="Layer_1" xmlns="http://www.w3.org/2000/svg" xmlns:xlink="http://www.w3.org/1999/xlink" x="0px" y="0px"
	 viewBox="0 0 468 468" style="enable-background:new 0 0 468 468;" xml:space="preserve">
<style type="text/css">
	.st0{fill:none;stroke:#002849;stroke-width:20;stroke-miterlimit:10;}
	.st1{fill:#002849;}
</style>
<circle class="st0" cx="235" cy="234.2" r="208.2"/>
<path id="Behance" class="st1" d="M363.8,161.6h-77.1v-19.1h77.1L363.8,161.6L363.8,161.6z M235.4,240.1c5,7.7,7.5,17,7.5,28
	c0.2,10.8-2.8,21.4-8.5,30.5c-3.5,5.8-8.1,10.9-13.5,15c-6.4,4.8-13.8,8.1-21.6,9.6c-8.9,1.8-17.9,2.6-27,2.6H86V134.5h92.4
	c23.3,0.4,39.8,7.1,49.6,20.4c5.9,8.1,8.8,17.9,8.8,29.2c0,11.7-2.9,21.1-8.9,28.2c-3.3,4-8.1,7.6-14.6,10.9
	C223.1,226.7,230.5,232.3,235.4,240.1L235.4,240.1z M130.1,209.9h40.5c8.3,0,15.1-1.6,20.2-4.7s7.8-8.8,7.8-16.8
	c0-8.9-3.4-14.8-10.3-17.7c-5.9-2-13.4-3-22.6-3h-35.6V209.9z M202.5,265.4c0-9.9-4.1-16.8-12.2-20.5c-4.5-2.1-10.9-3.2-19.1-3.2
	h-41.1v51h40.4c8.3,0,14.7-1.1,19.4-3.4C198.4,285.1,202.5,277.2,202.5,265.4L202.5,265.4z M392.4,234.2c0.9,6.3,1.4,15.4,1.2,27.2
	h-99.8c0.6,13.8,5.3,23.4,14.3,28.9c5.4,3.5,12,5.1,19.8,5.1c8.1,0,14.8-2.1,19.9-6.3c3.1-2.6,5.6-5.8,7.4-9.4h36.6
	c-1,8.1-5.4,16.4-13.3,24.8c-12.3,13.3-29.5,20-51.6,20c-17.6,0.2-34.7-5.7-48.3-16.9c-13.9-11.3-20.9-29.6-20.9-54.9
	c0-23.8,6.3-42,18.9-54.7c12.6-12.7,29-19,49-19c11.1-0.2,22.1,2,32.2,6.4c9.7,4.4,17.9,11.4,23.7,20.3
	C387.2,214.4,391,224.1,392.4,234.2L392.4,234.2z M356.4,237.8c-0.7-9.5-3.9-16.8-9.6-21.7c-5.7-4.9-12.8-7.4-21.2-7.4
	c-9.2,0-16.3,2.6-21.4,7.9s-8.3,12.3-9.6,21.2H356.4L356.4,237.8z"/>
</svg>
