<?xml version="1.0" encoding="utf-8"?>
<!-- Generator: Adobe Illustrator 21.1.0, SVG Export Plug-In . SVG Version: 6.00 Build 0)  -->
<svg version="1.1" id="Layer_1" xmlns="http://www.w3.org/2000/svg" xmlns:xlink="http://www.w3.org/1999/xlink" x="0px" y="0px"
	 viewBox="0 0 468 468" style="enable-background:new 0 0 468 468;" xml:space="preserve">
<style type="text/css">
	.st0{fill:#002849;}
	.st1{fill:none;stroke:#002849;stroke-width:20;stroke-miterlimit:10;}
</style>
<path class="st0" d="M235.5,126.1c34.2,0,38.2,0.1,51.7,0.8c12.5,0.6,19.3,2.6,23.8,4.4c11.2,4.3,20,13.1,24.3,24.3
	c1.8,4.5,3.8,11.3,4.4,23.8c0.6,13.5,0.8,17.6,0.8,51.7s-0.1,38.2-0.8,51.7c-0.6,12.5-2.6,19.3-4.4,23.8
	c-4.3,11.2-13.1,20-24.3,24.3c-4.5,1.8-11.3,3.8-23.8,4.4c-13.5,0.6-17.5,0.8-51.7,0.8s-38.2-0.1-51.7-0.8
	c-12.5-0.6-19.3-2.6-23.8-4.4c-11.2-4.3-20-13.1-24.3-24.3c-1.8-4.5-3.8-11.3-4.4-23.8c-0.6-13.5-0.8-17.5-0.8-51.7
	s0.1-38.2,0.8-51.7c0.6-12.5,2.6-19.3,4.4-23.8c4.3-11.2,13.1-20,24.3-24.3c4.5-1.8,11.3-3.8,23.8-4.4
	C197.3,126.2,201.3,126.1,235.5,126.1 M235.5,103c-34.8,0-39.1,0.2-52.8,0.8s-22.9,2.8-31.1,5.9c-17.2,6.6-30.8,20.2-37.4,37.4
	c-3.2,8.1-5.3,17.4-5.9,31.1s-0.8,18-0.8,52.8s0.2,39.1,0.8,52.8s2.8,22.9,5.9,31.1c6.6,17.2,20.2,30.8,37.4,37.4
	c8.1,3.2,17.4,5.3,31.1,6s18,0.8,52.8,0.8s39.1-0.1,52.8-0.8s22.9-2.8,31.1-6c17.2-6.6,30.8-20.2,37.4-37.4c3.2-8.1,5.3-17.5,6-31.1
	s0.8-18,0.8-52.8s-0.1-39.1-0.8-52.8s-2.8-22.9-6-31.1c-6.6-17.2-20.2-30.8-37.4-37.4c-8.1-3.2-17.5-5.3-31.1-5.9
	S270.3,103,235.5,103L235.5,103z M235.5,165.3c-36.3,0-65.7,29.4-65.7,65.7s29.4,65.7,65.7,65.7c36.3,0,65.7-29.4,65.7-65.7
	C301.2,194.7,271.8,165.3,235.5,165.3L235.5,165.3L235.5,165.3z M235.5,273.7c-23.6,0-42.7-19.1-42.7-42.7s19.1-42.7,42.7-42.7
	c23.6,0,42.7,19.1,42.7,42.7C278.2,254.6,259.1,273.7,235.5,273.7L235.5,273.7z M319.2,162.7c0,8.5-6.9,15.4-15.4,15.4
	c-8.5,0-15.4-6.9-15.4-15.4s6.9-15.4,15.4-15.4l0,0C312.3,147.3,319.2,154.2,319.2,162.7C319.2,162.7,319.2,162.7,319.2,162.7
	L319.2,162.7z"/>
<circle class="st1" cx="234.8" cy="234.8" r="208.2"/>
</svg>
